<mxfile host="65bd71144e">
    <diagram id="4UMKDmulNccPQShD0ZXB" name="第 1 页">
        <mxGraphModel dx="1254" dy="2152" grid="0" gridSize="10" guides="1" tooltips="1" connect="1" arrows="1" fold="1" page="1" pageScale="1" pageWidth="827" pageHeight="1169" background="#ffffff" math="0" shadow="0">
            <root>
                <mxCell id="0"/>
                <mxCell id="1" parent="0"/>
                <mxCell id="2" value="小海报用户相关流程" style="swimlane;childLayout=stackLayout;resizeParent=1;resizeParentMax=0;startSize=20;fillColor=#FFFFFF;fontColor=#333333;" parent="1" vertex="1">
                    <mxGeometry x="70" y="-1140" width="960" height="820" as="geometry"/>
                </mxCell>
                <mxCell id="3" value="匿名用户" style="swimlane;startSize=20;fillColor=#FFFFFF;fontColor=#333333;" parent="2" vertex="1">
                    <mxGeometry y="20" width="120" height="800" as="geometry"/>
                </mxCell>
                <mxCell id="4" value="普通用户" style="swimlane;startSize=20;fillColor=#FFFFFF;fontColor=#333333;" parent="2" vertex="1">
                    <mxGeometry x="120" y="20" width="120" height="800" as="geometry"/>
                </mxCell>
                <mxCell id="5" value="门店管理员" style="swimlane;startSize=20;fillColor=#FFFFFF;fontColor=#333333;" parent="2" vertex="1">
                    <mxGeometry x="240" y="20" width="120" height="800" as="geometry"/>
                </mxCell>
                <mxCell id="7" value="系统管理员" style="swimlane;startSize=20;fillColor=#FFFFFF;fontColor=#333333;" parent="2" vertex="1">
                    <mxGeometry x="360" y="20" width="120" height="800" as="geometry"/>
                </mxCell>
                <mxCell id="8" value="门店审核管理员" style="swimlane;startSize=20;fillColor=#FFFFFF;fontColor=#333333;" parent="2" vertex="1">
                    <mxGeometry x="480" y="20" width="120" height="800" as="geometry"/>
                </mxCell>
                <mxCell id="10" value="广告审核管理员" style="swimlane;startSize=20;fillColor=#FFFFFF;fontColor=#333333;" parent="2" vertex="1">
                    <mxGeometry x="600" y="20" width="120" height="800" as="geometry"/>
                </mxCell>
                <mxCell id="11" value="市场专员" style="swimlane;startSize=20;fillColor=#FFFFFF;fontColor=#333333;" parent="2" vertex="1">
                    <mxGeometry x="720" y="20" width="120" height="800" as="geometry"/>
                </mxCell>
                <mxCell id="12" value="客服专员" style="swimlane;startSize=20;fillColor=#FFFFFF;fontColor=#333333;" parent="2" vertex="1">
                    <mxGeometry x="840" y="20" width="120" height="800" as="geometry"/>
                </mxCell>
            </root>
        </mxGraphModel>
    </diagram>
</mxfile>
